<?xml version="1.0" encoding="UTF-8" standalone="no"?>
<!-- Generator: Adobe Illustrator 16.0.0, SVG Export Plug-In . SVG Version: 6.00 Build 0)  -->

<svg
   xmlns:dc="http://purl.org/dc/elements/1.1/"
   xmlns:cc="http://creativecommons.org/ns#"
   xmlns:rdf="http://www.w3.org/1999/02/22-rdf-syntax-ns#"
   xmlns:svg="http://www.w3.org/2000/svg"
   xmlns="http://www.w3.org/2000/svg"
   xmlns:sodipodi="http://sodipodi.sourceforge.net/DTD/sodipodi-0.dtd"
   xmlns:inkscape="http://www.inkscape.org/namespaces/inkscape"
   version="1.1"
   id="svg2"
   sodipodi:docname="ABC_Studios_logo.svg"
   inkscape:version="0.92.3 (2405546, 2018-03-11)"
   x="0px"
   y="0px"
   width="1000px"
   height="354.615px"
   viewBox="0 0 1000 354.615"
   enable-background="new 0 0 1000 354.615"
   xml:space="preserve"><metadata
   id="metadata54"><rdf:RDF><cc:Work
       rdf:about=""><dc:format>image/svg+xml</dc:format><dc:type
         rdf:resource="http://purl.org/dc/dcmitype/StillImage" /></cc:Work></rdf:RDF></metadata><defs
   id="defs52" />
<sodipodi:namedview
   units="px"
   inkscape:window-height="705"
   inkscape:pageshadow="2"
   inkscape:pageopacity="0.0"
   inkscape:window-width="1366"
   inkscape:cy="201.14937"
   inkscape:cx="283.84804"
   inkscape:zoom="1.4"
   showgrid="false"
   id="base"
   borderopacity="1.0"
   bordercolor="#666666"
   pagecolor="#ffffff"
   inkscape:current-layer="layer1"
   inkscape:window-maximized="1"
   inkscape:window-x="-8"
   inkscape:window-y="-8"
   inkscape:document-units="px">
	</sodipodi:namedview>
<g
   id="g9954">
	<g
   id="g9960"
   transform="translate(535.4028,75.2666)">
		<path
   id="path9962"
   inkscape:connector-curvature="0"
   d="M-85.773,78.357c-6.436-4.783-15.609-8.156-23.604-8.156    c-9.362,0-16.191,2.98-16.191,9.146c0,8.767,11.314,7.968,23.793,10.759c18.536,3.97,31.028,12.343,31.028,32.856    c0,22.289-18.143,33.034-41.949,33.034c-14.43,0-29.646-5.177-39.984-15.731l12.683-18.115    c6.829,5.975,16.774,10.162,27.695,10.162c9.755,0,15.798-2.791,15.798-8.563c0-9.958-14.24-9.349-25.161-12.14    c-16.774-4.188-29.063-13.333-29.063-31.665c0-21.883,17.357-33.44,41.543-33.44c13.86,0,26.529,5.176,36.096,13.739    L-85.773,78.357z" />
	</g>
	<g
   id="g9964"
   transform="translate(541.1834,75.6193)">
		<path
   id="path9966"
   inkscape:connector-curvature="0"
   d="M-13.228,73.225h-16.774v80.837h-25.744V73.225h-19.715l6.057-25.486    h13.658V19.272h25.744v28.467h22.817L-13.228,73.225z" />
	</g>
	<g
   id="g9968"
   transform="translate(548.9778,69.6537)">
		<path
   id="path9970"
   inkscape:connector-curvature="0"
   d="M84.586,160.022H58.842v-7.764c-6.449,5.176-14.836,9.35-24.578,9.35    c-27.315,0-43.508-20.107-43.508-44.389V53.7h25.758v61.718c0,11.761,8.387,20.323,21.056,20.323    c12.683,0,21.272-8.563,21.272-20.323V53.7h25.744V160.022z" />
	</g>
	<g
   id="g9972"
   transform="translate(553.8428,71.4758)">
		<path
   id="path9974"
   inkscape:connector-curvature="0"
   d="M145.639,133.512c15.405,0,27.112-12.343,27.112-28.48    c0-16.124-11.707-28.454-27.112-28.454s-27.112,12.33-27.112,28.454C118.526,121.169,130.233,133.512,145.639,133.512     M91.996,105.031c0-30.648,23.4-54.74,52.084-54.74c10.528,0,20.677,3.984,28.278,10.162V4.115h25.744v154.083h-25.744v-8.563    c-7.602,6.165-17.75,10.148-28.278,10.148C115.396,159.784,91.996,135.693,91.996,105.031" />
	</g>
	<path
   id="path9976"
   inkscape:connector-curvature="0"
   d="M768.533,123.35h25.744v106.322h-25.744V123.35z M781.418,71.997   c8.576,0,15.406,6.965,15.406,15.717c0,8.768-6.83,15.731-15.406,15.731c-8.59,0-15.419-6.964-15.419-15.731   C765.999,78.962,772.828,71.997,781.418,71.997" />
	<g
   id="g9978"
   transform="translate(565.6642,71.4758)">
		<path
   id="path9980"
   inkscape:connector-curvature="0"
   d="M293.99,133.512c15.406,0,27.113-12.343,27.113-28.48    c0-16.124-11.707-28.454-27.113-28.454c-15.405,0-27.112,12.33-27.112,28.454C266.878,121.169,278.585,133.512,293.99,133.512     M293.99,50.291c30.039,0,53.629,24.092,53.629,54.74c0,30.662-23.59,54.753-53.629,54.753s-53.642-24.091-53.642-54.753    C240.349,74.383,263.951,50.291,293.99,50.291" />
	</g>
	<g
   id="g9982"
   transform="translate(574.9142,75.2666)">
		<path
   id="path9984"
   inkscape:connector-curvature="0"
   d="M410.072,78.357c-6.436-4.783-15.608-8.156-23.603-8.156    c-9.362,0-16.191,2.98-16.191,9.146c0,8.767,11.313,7.968,23.793,10.759c18.535,3.97,31.015,12.343,31.015,32.856    c0,22.289-18.144,33.034-41.936,33.034c-14.431,0-29.646-5.177-39.984-15.731l12.682-18.115    c6.829,5.975,16.774,10.162,27.695,10.162c9.756,0,15.799-2.791,15.799-8.563c0-9.958-14.24-9.349-25.161-12.14    c-16.774-4.188-29.063-13.333-29.063-31.665c0-21.883,17.356-33.44,41.556-33.44c13.848,0,26.517,5.176,36.068,13.739    L410.072,78.357z" />
	</g>
</g>
<g
   id="layer1"
   transform="translate(260.85714,-477.5162)"
   inkscape:label="Layer 1"
   inkscape:groupmode="layer">
	<g
   id="g4452_1_"
   transform="translate(-260.85714,477.5162)">
		<g
   id="g3060_1_">
			
				<radialGradient
   id="path3011_2_"
   cx="537.2598"
   cy="245.2354"
   r="177.6437"
   gradientTransform="matrix(0.7334 2.0204 1.7843 -0.6477 -566.2853 -634.2463)"
   gradientUnits="userSpaceOnUse">
				<stop
   offset="0"
   style="stop-color:#808080"
   id="stop17" />
				<stop
   offset="1"
   style="stop-color:#000000"
   id="stop19" />
			</radialGradient>
			<path
   id="path3011_1_"
   inkscape:connector-curvature="0"
   fill="url(#path3011_2_)"
   d="M355.287,177.299     c0,97.922-79.533,177.301-177.644,177.301S0,275.221,0,177.299C0,79.378,79.533-0.002,177.643-0.002     S355.287,79.378,355.287,177.299z" />
			<g
   id="g3511_1_">
				<g
   id="g3389_1_">
					
						<linearGradient
   id="path3151_2_"
   gradientUnits="userSpaceOnUse"
   x1="177.6436"
   y1="252.9355"
   x2="177.6435"
   y2="14.4102"
   gradientTransform="matrix(1 0 0 -1 0 355.6152)">
						<stop
   offset="0"
   style="stop-color:#000000"
   id="stop23" />
						<stop
   offset="1"
   style="stop-color:#000000;stop-opacity:0"
   id="stop25" />
					</linearGradient>
					<path
   id="path3151_1_"
   inkscape:connector-curvature="0"
   fill="url(#path3151_2_)"
   d="M355.287,177.299       c0,97.922-79.533,177.301-177.644,177.301C79.533,354.6,0,275.221,0,177.299C0,79.378,79.533-0.002,177.643-0.002       C275.753-0.002,355.287,79.378,355.287,177.299z" />
					
						<linearGradient
   id="path3016_2_"
   gradientUnits="userSpaceOnUse"
   x1="82.0024"
   y1="328.3262"
   x2="189.4029"
   y2="209.5744"
   gradientTransform="matrix(1 0 0 -1 0 355.6152)">
						<stop
   offset="0"
   style="stop-color:#999999"
   id="stop29" />
						<stop
   offset="1"
   style="stop-color:#999999;stop-opacity:0"
   id="stop31" />
					</linearGradient>
					<path
   id="path3016_1_"
   inkscape:connector-curvature="0"
   sodipodi:nodetypes="ccccccc"
   fill="url(#path3016_2_)"
   d="       M3.492,141.356c6.176-22.663,11.611-46.103,42.786-83.825c17.791-16.505,33.228-32.885,71.164-47.152       c45.049-14.673,91.753-14.73,138.836,8.732c-1.716,62.408-19.498,93.53-43.223,113.077       c-47.533,36.258-88.922,47.062-128.357,49.771C48.017,183.882,23.185,158.525,3.492,141.356z" />
					<path
   id="path2995_1_"
   inkscape:connector-curvature="0"
   d="M177.643-0.002C79.533-0.002,0,79.369,0,177.29       s79.533,177.327,177.644,177.327s177.644-79.406,177.644-177.327S275.753-0.002,177.643-0.002z M177.292,3.406       c96.027,0,173.885,77.727,173.885,173.568c0,95.842-77.857,173.533-173.885,173.533c-96.026,0-173.849-77.691-173.849-173.533       C3.442,81.133,81.265,3.406,177.292,3.406z" />
				</g>
			</g>
			
				<linearGradient
   id="path3015-9_2_"
   gradientUnits="userSpaceOnUse"
   x1="180.9595"
   y1="178.6592"
   x2="333.7583"
   y2="178.6592"
   gradientTransform="matrix(1 0 0 -1 0 355.6152)">
				<stop
   offset="0"
   style="stop-color:#000000"
   id="stop38" />
				<stop
   offset="1"
   style="stop-color:#000000;stop-opacity:0"
   id="stop40" />
			</linearGradient>
			<path
   id="path3015-9_1_"
   inkscape:connector-curvature="0"
   sodipodi:nodetypes="ssscccsssssss"
   fill="url(#path3015-9_2_)"
   d="     M63.524,122.616c-29.607,0-53.362,24.262-53.362,54.341c0,30.079,23.755,54.34,53.362,54.34c18.18,0,25.287-13.055,25.287-13.055     v11.876h28.075v-53.161C116.887,146.878,93.131,122.616,63.524,122.616z M63.524,151.027c14.116,0,25.431,11.577,25.431,25.93     c0,14.352-11.315,25.929-25.431,25.929s-25.431-11.577-25.431-25.929C38.094,162.604,49.409,151.027,63.524,151.027z" />
			
				
			
				<path
   id="path3436_1_"
   inkscape:connector-curvature="0"
   sodipodi:nodetypes="ssscccsssssss"
   fill="#FFFFFF"
   stroke="#000000"
   stroke-width="0.8866"
   d="     M60.981,121.631c-30.85,0-55.603,24.854-55.603,55.667c0,30.813,24.753,55.665,55.603,55.665     c18.943,0,26.348-13.373,26.348-13.373v12.166h29.254v-54.458C116.583,146.485,91.832,121.631,60.981,121.631z M60.981,150.735     c14.708,0,26.499,11.859,26.499,26.563c0,14.702-11.79,26.562-26.499,26.562S34.483,192,34.483,177.298     C34.483,162.594,46.273,150.735,60.981,150.735z" />
			
				<path
   id="path3438_1_"
   inkscape:connector-curvature="0"
   sodipodi:nodetypes="ccssscccsssss"
   fill="#FFFFFF"
   stroke="#000000"
   stroke-width="0.8866"
   d="     M123.658,83.3c0,31.333,0,62.667,0,94.001c0,30.813,24.771,55.686,55.621,55.686c30.852,0,55.559-24.873,55.559-55.686     c0-30.813-24.707-55.685-55.559-55.685c-18.942,0-26.373,13.41-26.373,13.41c0-17.242,0-34.484,0-51.726H123.658z      M179.279,150.735c14.709,0,26.503,11.863,26.503,26.565c0,14.702-11.794,26.565-26.503,26.565     c-14.707,0-26.5-11.863-26.5-26.565C152.778,162.598,164.572,150.735,179.279,150.735z" />
			
				<path
   id="path3440_1_"
   inkscape:connector-curvature="0"
   sodipodi:nodetypes="sssccsssccs"
   fill="#FFFFFF"
   stroke="#000000"
   stroke-width="0.8866"
   d="     M295.21,121.631c-30.851,0-55.602,24.854-55.602,55.667c0,30.813,24.751,55.665,55.602,55.665     c26.628,0,48.722-18.519,54.267-43.402h-30.755c-4.412,8.485-13.246,14.299-23.512,14.299c-14.709,0-26.499-11.859-26.499-26.562     c0-14.704,11.79-26.563,26.499-26.563c10.295,0,19.177,5.834,23.575,14.362h30.691     C343.955,140.182,321.86,121.631,295.21,121.631z" />
		</g>
	</g>
</g>
</svg>